# xmcd
#
# Track frame offsets:
#	150
#	14124
#	28490
#	46883
#	58050
#	70726
#	86526
#	99026
#	108115
#	122336
#	131913
#	143046
#	157772
#	172311
#	183552
#	197069
#
# Disc length: 2846 seconds
#
# Revision: 1
# Processed by: cddbd v1.5.2PL0 Copyright (c) Steve Scherf et al.
# Submitted via: audiograbber 1.83.01
#
DISCID=dc0b1c10
DTITLE=KEN MULLAN - BROWN EYES
DYEAR=1900
DGENRE=Country
TTITLE0=BROWN EYES
TTITLE1=FRAULEIN
TTITLE2=EILEEN
TTITLE3=SAIL ALONG SILVERY MOON
TTITLE4=ANNIE'S SONG
TTITLE5=HOW GREAT THOU ART
TTITLE6=THERESA
TTITLE7=GROEN KORING LANDE
TTITLE8=WHEN MY BLUE MOON TURNS TO GOLD AGAIN
TTITLE9=I'LL STEP DOWN
TTITLE10=THAT'S AN IRISH LULLABY
TTITLE11=DON'T BE ANGRY WITH ME DARLING
TTITLE12=LOVE IS A BEAUTIFUL SONG
TTITLE13=BOUQUET OF ROSES
TTITLE14=VALLEY OF THE MOON
TTITLE15=TAKE GOOD CARE OF HER
EXTD=
EXTT0=
EXTT1=
EXTT2=
EXTT3=
EXTT4=
EXTT5=
EXTT6=
EXTT7=
EXTT8=
EXTT9=
EXTT10=
EXTT11=
EXTT12=
EXTT13=
EXTT14=
EXTT15=
PLAYORDER=
